# xmcd
#
# Track frame offsets:
#	187
#	14130
#	32265
#	43477
#	59507
#	69442
#	79297
#	98455
#	110157
#	149080
#	155635
#	168920
#	201010
#
# Disc length: 2964 seconds
#
# Revision: 1
# Processed by: cddbd v1.5.1PL0 Copyright (c) Steve Scherf et al.
# Submitted via: CDex 1.50Beta5
#
DISCID=bb0b920d
DTITLE=五つの赤い風船 - フォーク・アルバム第二集
DYEAR=1995
DGENRE=
TTITLE0=時は変わってしまった
TTITLE1=プレゼント
TTITLE2=ささ舟
TTITLE3=どこかの星に伝えて下さい
TTITLE4=てるてる坊主
TTITLE5=小さな夢
TTITLE6=FOLK脱出計画
TTITLE7=これがボクらの道なのか
TTITLE8=遠い世界に
TTITLE9=夢みる女の子
TTITLE10=一番星みつけた
TTITLE11=おとぎ話を聞きたいの
TTITLE12=唄
EXTD=
EXTT0=
EXTT1=
EXTT2=
EXTT3=
EXTT4=
EXTT5=
EXTT6=
EXTT7=
EXTT8=
EXTT9=
EXTT10=
EXTT11=
EXTT12=
PLAYORDER=
